 <svg  version="1.0" xmlns="http://www.w3.org/2000/svg"  width="500.000000pt" height="500.000000pt" viewBox="0 0 500.000000 500.000000"  preserveAspectRatio="xMidYMid meet">  <g transform="translate(0.000000,500.000000) scale(0.100000,-0.100000)" fill="#ffffff" stroke="none"> <path d="M1377 2903 c-4 -1097 -2 -1062 -66 -1199 -30 -64 -93 -134 -143 -160 -131 -68 -347 -78 -521 -24 -131 41 -280 165 -344 286 -24 46 -31 53 -52 49 -13 -2 -24 -5 -26 -7 -1 -2 -36 -49 -79 -105 l-77 -103 20 -38 c146 -287 561 -459 958 -398 361 55 546 232 620 592 14 69 16 210 20 1092 l4 1012 -155 0 -155 0 -4 -997z m251 949 c10 -7 12 -206 10 -1023 l-3 -1014 -23 -80 c-58 -207 -157 -337 -314 -414 -103 -51 -174 -69 -311 -80 -374 -29 -698 105 -846 349 -11 19 -21 38 -21 42 0 11 119 168 128 168 5 0 26 -25 47 -55 91 -132 246 -243 395 -282 92 -24 303 -24 385 1 210 63 309 207 335 491 5 55 9 504 10 997 0 707 3 897 13 901 20 9 181 7 195 -1z"/> <path d="M2470 2566 l0 -1336 158 0 157 0 -3 522 -3 523 388 0 c329 1 402 4 477 19 191 37 325 105 441 221 121 121 184 261 206 458 15 124 2 289 -30 393 -70 231 -241 400 -489 483 -115 39 -174 43 -744 48 l-558 5 0 -1336z m1063 1283 c359 -31 598 -202 686 -490 65 -212 47 -469 -46 -658 -56 -114 -168 -223 -293 -285 -177 -86 -196 -89 -672 -95 l-417 -6 -23 -23 -23 -23 -3 -491 c-2 -374 -5 -494 -15 -500 -20 -13 -192 -9 -205 4 -17 17 -17 2549 0 2566 15 15 838 17 1011 1z"/> <path d="M2764 3649 c-18 -20 -19 -44 -19 -559 l0 -538 25 -27 25 -26 385 3 c359 4 390 6 453 26 103 32 153 59 218 119 105 98 158 243 159 436 0 320 -140 515 -412 571 -62 13 -149 16 -446 16 -362 0 -369 0 -388 -21z m821 -34 c256 -49 385 -226 385 -530 0 -290 -109 -449 -355 -521 -51 -14 -117 -18 -447 -21 l-388 -5 0 546 0 546 364 0 c279 0 382 -3 441 -15z"/> </g> </svg> 